# xmcd
#
# Track frame offsets:
#	150
#	11678
#	24450
#	39705
#	53214
#	75000
#	88060
#	103283
#	115915
#	130200
#
# Disc length: 1963 seconds
#
# Revision: 1
# Processed by: cddbd v1.5.1PL0 Copyright (c) Steve Scherf et al.
# Submitted via: MusicWizard 7.0.2
#
DISCID=7807a90a
DTITLE=Emmylou Harris - Thirteen
DYEAR=1986
DGENRE=Country
TTITLE0=Mystery Train
TTITLE1=You're Free To Go
TTITLE2=Sweetheart Of The Pines
TTITLE3=Just Someone I Used To Know (With John Anderson)
TTITLE4=My Father's House
TTITLE5=Lacassine Special
TTITLE6=Today I Started Loving You Again
TTITLE7=When I Was Yours
TTITLE8=I Had My Heart Set On You (With Duane Eddy)
TTITLE9=Your Long Journey
EXTD=(c)1986 WEA\nupc 075992535210\n(p)Emmylou Harris and Paul Kennerley\n
EXTT0=
EXTT1=
EXTT2=
EXTT3=
EXTT4=
EXTT5=
EXTT6=
EXTT7=
EXTT8=
EXTT9=
PLAYORDER=
